<svg xmlns="http://www.w3.org/2000/svg" viewBox="1 1 18 18" fill="currentColor"><path fill-rule="evenodd" d="M9.002 1.75c1.114 0 2.134.405 2.922 1.072q.392-.072.806-.073a4.523 4.523 0 0 1 4.447 5.326 4.524 4.524 0 0 1-1.922 7.18 4.52 4.52 0 0 1-4.256 2.995 4.5 4.5 0 0 1-2.923-1.073q-.391.072-.805.074a4.523 4.523 0 0 1-4.448-5.327 4.5 4.5 0 0 1-1.066-2.69l-.007-.233a4.53 4.53 0 0 1 2.994-4.258A4.525 4.525 0 0 1 9.002 1.75zM13.333 11.418a.665.665 0 0 1 0 1.33h-2.5a.665.665 0 1 1 0-1.33zM6.741 7.347a.665.665 0 0 1 .912.228l1.25 2.083a.67.67 0 0 1 0 .685l-1.25 2.083a.666.666 0 0 1-1.14-.685L7.557 10 6.513 8.259a.665.665 0 0 1 .228-.912z"/></svg>
